<svg width="97" height="37" viewBox="0 0 97 37" fill="none" xmlns="http://www.w3.org/2000/svg">
<path d="M18.9141 5.74219C17.5703 5.58594 16.3203 5.50781 15.1641 5.50781C12.1016 5.50781 10.5703 6.8125 10.5703 9.42188V11.1328H15.6094V16.1016H10.5703V36.4922H3.77344V16.1016H0V11.1328H3.77344V9.16406C3.80469 6.22656 4.72656 3.96875 6.53906 2.39062C8.35156 0.796875 10.9141 0 14.2266 0C16.5859 0 20.4141 0.25 25.7109 0.75V36.4922H18.9141V5.74219Z" fill="#FEF9F6"/>
<path d="M71.6756 17.4844C70.7538 17.3594 69.9413 17.2969 69.2381 17.2969C66.6756 17.2969 64.9959 18.1641 64.1991 19.8984V36.4922H57.4256V11.1328H63.8241L64.0116 14.1562C65.3709 11.8281 67.2538 10.6641 69.66 10.6641C70.41 10.6641 71.1131 10.7656 71.7694 10.9688L71.6756 17.4844Z" fill="#FEF9F6"/>
<path d="M89.6691 36.4922C89.3566 35.8828 89.13 35.125 88.9894 34.2188C87.3487 36.0469 85.2159 36.9609 82.5909 36.9609C80.1066 36.9609 78.0441 36.2422 76.4034 34.8047C74.7784 33.3672 73.9659 31.5547 73.9659 29.3672C73.9659 26.6797 74.9581 24.6172 76.9425 23.1797C78.9425 21.7422 81.8253 21.0156 85.5909 21H88.7081V19.5469C88.7081 18.375 88.4034 17.4375 87.7941 16.7344C87.2003 16.0312 86.255 15.6797 84.9581 15.6797C83.8175 15.6797 82.9191 15.9531 82.2628 16.5C81.6222 17.0469 81.3019 17.7969 81.3019 18.75H74.5284C74.5284 17.2812 74.9816 15.9219 75.8878 14.6719C76.7941 13.4219 78.0753 12.4453 79.7316 11.7422C81.3878 11.0234 83.2472 10.6641 85.3097 10.6641C88.4347 10.6641 90.9112 11.4531 92.7394 13.0312C94.5831 14.5938 95.505 16.7969 95.505 19.6406V30.6328C95.5206 33.0391 95.8566 34.8594 96.5128 36.0938V36.4922H89.6691ZM84.0675 31.7812C85.0675 31.7812 85.9894 31.5625 86.8331 31.125C87.6769 30.6719 88.3019 30.0703 88.7081 29.3203V24.9609H86.1769C82.7862 24.9609 80.9816 26.1328 80.7628 28.4766L80.7394 28.875C80.7394 29.7188 81.0362 30.4141 81.63 30.9609C82.2237 31.5078 83.0362 31.7812 84.0675 31.7812Z" fill="#FEF9F6"/>
<circle cx="41.3203" cy="21" r="15" fill="#FEF9F6"/>
<circle cx="41.8203" cy="20.5" r="7.5" fill="#55331C"/>
</svg>
