<svg width="38" height="39" viewBox="0 0 38 39" fill="none" xmlns="http://www.w3.org/2000/svg">
<path d="M10.998 18.0844H10.5801V14.6443C10.5801 14.2365 10.2547 13.906 9.85299 13.906H9.79055V6.86773C9.79055 6.58817 9.63504 6.33253 9.38859 6.20742L3.76156 3.34999C3.53625 3.2356 3.26857 3.24771 3.05411 3.38227C2.83966 3.51674 2.70916 3.75437 2.70916 4.0103V13.906H2.64673C2.24506 13.906 1.91959 14.2365 1.91959 14.6443V18.0844H1.50106C1.09939 18.0844 0.773926 18.415 0.773926 18.8227V38.2019C0.773926 38.6096 1.09939 38.9402 1.50106 38.9402H10.9978C11.3995 38.9402 11.7249 38.6096 11.7249 38.2019V18.8227C11.7251 18.415 11.3996 18.0844 10.998 18.0844ZM4.16362 5.20503L8.33638 7.32399V13.906H4.16362V5.20503V5.20503ZM3.37415 15.3825H9.12595V18.0844H3.37415V15.3825ZM10.2708 37.4636H2.22838V19.561H10.2708V37.4636V37.4636Z" fill="#FEF9F6"/>
<path d="M36.4986 30.1639H12.8809C12.4793 30.1639 12.1538 30.4945 12.1538 30.9022C12.1538 31.31 12.4793 31.6405 12.8809 31.6405H35.3417L35.1754 31.9914C34.262 33.9185 32.3109 35.1637 30.2046 35.1637H12.8809C12.4793 35.1637 12.1538 35.4942 12.1538 35.902C12.1538 36.3097 12.4793 36.6403 12.8809 36.6403H30.2046C32.8662 36.6403 35.3318 35.0668 36.4858 32.6317L37.1538 31.2223C37.2623 30.9936 37.2474 30.7242 37.1142 30.5094C36.9811 30.2945 36.7486 30.1639 36.4986 30.1639Z" fill="#FEF9F6"/>
<path d="M11.2021 5.64052C13.9133 3.09197 17.4427 1.68835 21.1403 1.68835C29.208 1.68835 35.7716 8.35257 35.7716 16.544C35.7716 20.9602 33.855 25.1184 30.5134 27.9526C30.2051 28.214 30.164 28.6795 30.4215 28.9925C30.5652 29.1673 30.7717 29.2574 30.9799 29.2574C31.1442 29.2574 31.3096 29.2011 31.4456 29.0858C35.1192 25.9703 37.226 21.399 37.226 16.5439C37.2259 7.5384 30.0099 0.211792 21.1403 0.211792C17.0753 0.211792 13.195 1.755 10.2141 4.55712C9.91944 4.83412 9.9017 5.30121 10.1745 5.60046C10.4472 5.89951 10.9073 5.91752 11.2021 5.64052Z" fill="#FEF9F6"/>
<path d="M21.1399 4.75909C27.5402 4.75909 32.7472 10.046 32.7472 16.5444C32.7472 23.0428 27.5402 28.3297 21.1399 28.3297C18.2625 28.3297 15.5025 27.253 13.368 25.2981C13.07 25.0251 12.6102 25.049 12.341 25.3518C12.0721 25.6545 12.0957 26.1214 12.394 26.3944C14.796 28.5946 17.902 29.8063 21.1399 29.8063C28.3421 29.8063 34.2015 23.857 34.2015 16.5444C34.2015 9.23179 28.3421 3.28253 21.1399 3.28253C17.0035 3.28253 13.0684 5.30443 10.6137 8.69117C10.3756 9.01956 10.445 9.48172 10.7684 9.72338C11.0918 9.96495 11.5468 9.89476 11.785 9.56638C13.9668 6.55626 17.464 4.75909 21.1399 4.75909Z" fill="#FEF9F6"/>
<path d="M29.1392 10.7284L15.8697 24.2013C15.5857 24.4896 15.5857 24.9571 15.8697 25.2453C16.0117 25.3894 16.1979 25.4615 16.3839 25.4615C16.57 25.4615 16.7561 25.3895 16.8982 25.2453L30.1676 11.7724C30.4515 11.4841 30.4515 11.0166 30.1676 10.7284C29.8835 10.4401 29.4232 10.4401 29.1392 10.7284Z" fill="#FEF9F6"/>
<path d="M19.9107 24.2924C19.6268 24.5807 19.6268 25.0482 19.9107 25.3364C20.0528 25.4805 20.2389 25.5527 20.425 25.5527C20.611 25.5527 20.7972 25.4806 20.9392 25.3364L30.9018 15.2209C31.1858 14.9326 31.1858 14.4651 30.9018 14.1769C30.6178 13.8886 30.1574 13.8886 29.8735 14.1769L19.9107 24.2924Z" fill="#FEF9F6"/>
</svg>
