<svg width="43" height="41" viewBox="0 0 43 41" fill="none" xmlns="http://www.w3.org/2000/svg">
<path d="M21.4887 11.7901C22.0342 11.7901 23.0858 11.1367 24.6149 9.84773C25.6709 8.95767 26.9908 7.71069 27.5282 6.88083C27.9357 6.2519 28.3947 5.36728 28.328 4.09984C28.217 1.99284 26.5426 0.342346 24.5162 0.342346C23.0715 0.342346 22.0585 1.42482 21.4974 2.04547C20.9651 1.43464 19.9432 0.342346 18.4499 0.342346C16.4236 0.342346 14.7492 1.99284 14.6381 4.09996C14.5706 5.38396 15.0623 6.30228 15.4382 6.8813C16.2686 8.16116 20.2807 11.7901 21.4887 11.7901Z" fill="#FEF9F6"/>
<path d="M29.3454 13.2969C26.4191 13.2969 23.7055 14.239 21.483 15.8397C19.2605 14.2389 16.5469 13.2969 13.6206 13.2969C6.11022 13.2969 0 19.5008 0 27.1263C0 34.7517 6.11022 40.9556 13.6205 40.9556C16.5468 40.9556 19.2604 40.0136 21.4829 38.4128C23.7054 40.0136 26.419 40.9556 29.3453 40.9556C36.8557 40.9556 42.9658 34.7518 42.9658 27.1263C42.9658 19.5007 36.8557 13.2969 29.3454 13.2969ZM21.483 33.5974C20.0685 31.829 19.2193 29.5766 19.2193 27.1263C19.2193 24.6759 20.0684 22.4233 21.483 20.6549C22.8975 22.4233 23.7468 24.6758 23.7468 27.1263C23.7468 29.5767 22.8975 31.8292 21.483 33.5974ZM3.49435 27.1263C3.49435 21.457 8.037 16.8447 13.6205 16.8447C15.5319 16.8447 17.3211 17.3854 18.8481 18.3237C16.8981 20.7168 15.7249 23.7849 15.7249 27.1261C15.7249 30.4673 16.8981 33.5355 18.8481 35.9286C17.3211 36.8669 15.5319 37.4076 13.6205 37.4076C8.037 37.4077 3.49435 32.7955 3.49435 27.1263ZM29.3454 37.4077C27.4341 37.4077 25.6448 36.867 24.1179 35.9287C26.0678 33.5356 27.241 30.4675 27.241 27.1263C27.241 23.785 26.0678 20.7168 24.1179 18.3238C25.6448 17.3855 27.434 16.8448 29.3454 16.8448C34.929 16.8448 39.4716 21.4571 39.4716 27.1264C39.4716 32.7956 34.9289 37.4077 29.3454 37.4077Z" fill="#FEF9F6"/>
</svg>
