<svg width="38" height="42" viewBox="0 0 38 42" fill="none" xmlns="http://www.w3.org/2000/svg">
<path d="M32.4894 5.96968C28.9358 2.3616 24.2111 0.374573 19.1855 0.374573C14.16 0.374573 9.43534 2.3616 5.88173 5.96968C2.32812 9.57769 0.371094 14.3749 0.371094 19.4774V34.272C0.371094 38.5302 3.78307 41.9944 7.97694 41.9944C8.64017 41.9944 9.17786 41.4485 9.17786 40.7751V35.8536C15.8233 34.0828 22.5478 34.0828 29.1932 35.8536V40.7751C29.1932 41.4485 29.7309 41.9944 30.3942 41.9944C34.588 41.9944 38 38.5302 38 34.272V19.4774C38 14.3749 36.043 9.57769 32.4894 5.96968V5.96968ZM27.1116 32.8683V28.9493C27.1116 28.2759 26.5739 27.73 25.9107 27.73C25.2475 27.73 24.7098 28.2759 24.7098 28.9493V32.466C24.0163 32.3703 23.3224 32.2925 22.6282 32.2329V28.4886C22.6282 27.8152 22.0905 27.2692 21.4273 27.2692C20.764 27.2692 20.2263 27.8152 20.2263 28.4886V32.0992C19.5325 32.0812 18.8386 32.0812 18.1447 32.0992V28.4885C18.1447 27.8151 17.6071 27.2691 16.9438 27.2691C16.2806 27.2691 15.7429 27.8151 15.7429 28.4885V32.2329C15.0487 32.2925 14.3548 32.3703 13.6613 32.466V28.9492C13.6613 28.2758 13.1236 27.7299 12.4604 27.7299C11.7972 27.7299 11.2595 28.2758 11.2595 28.9492V32.8683C10.5649 33.006 9.87103 33.1625 9.17786 33.3365V17.3643C11.0937 17.1052 12.8928 16.2341 14.2973 14.8922L15.823 16.9575C16.0498 17.2645 16.4057 17.4452 16.7837 17.4452H21.5874C21.9654 17.4452 22.3213 17.2645 22.5481 16.9575L24.0738 14.8922C25.4783 16.2341 27.2774 17.1052 29.1932 17.3643V33.3365C28.5001 33.1625 27.8062 33.0061 27.1116 32.8683ZM35.5982 34.272C35.5982 36.766 33.8876 38.8619 31.5951 39.4138V16.2259C31.5951 15.5525 31.0574 15.0066 30.3942 15.0066C28.2636 15.0066 26.2284 13.9734 24.95 12.2427C24.7232 11.9357 24.3673 11.755 23.9892 11.755C23.6112 11.755 23.2553 11.9357 23.0285 12.2427L20.9869 15.0066H17.3842L15.3426 12.2427C15.1158 11.9357 14.7599 11.755 14.3819 11.755C14.0038 11.755 13.6479 11.9357 13.4211 12.2427C12.1427 13.9734 10.1075 15.0066 7.97694 15.0066C7.31371 15.0066 6.77601 15.5525 6.77601 16.2259V39.4138C4.48345 38.8619 2.77294 36.766 2.77294 34.272V19.4774C2.77294 10.2887 10.1356 2.81324 19.1855 2.81324C28.2355 2.81324 35.5982 10.2887 35.5982 19.4774V34.272Z" fill="#FEF9F6"/>
</svg>
