<svg width="36" height="48" viewBox="0 0 36 48" fill="none" xmlns="http://www.w3.org/2000/svg">
<path d="M35.9961 26.4396C35.9927 24.3797 34.5501 22.6801 32.7111 22.4768V21.0287C32.7111 15.6412 30.2666 10.8654 26.525 7.95327C25.8788 3.39041 22.2844 0 18.0108 0C13.7373 0 10.1428 3.39041 9.49637 7.95327C5.75479 10.8654 3.31038 15.6412 3.31038 21.0287V22.475C1.46117 22.6673 0.00735651 24.3717 0.00389263 26.4395L6.19401e-06 28.7757C-0.00176799 29.8429 0.377654 30.8468 1.06832 31.6021C1.75907 32.3574 2.67784 32.7735 3.65542 32.7735H4.06475C5.92055 39.7734 11.0544 45.3595 17.7966 47.1949C17.8638 47.2132 17.9324 47.2223 18.0011 47.2223C18.0695 47.2223 18.1379 47.2132 18.2047 47.1951L18.2189 47.1912C19.7647 46.7709 21.2566 46.1424 22.6531 45.3227C23.0641 45.0816 23.2182 44.5223 22.9972 44.0736C22.7763 43.625 22.2643 43.4569 21.853 43.6981C20.6377 44.4113 19.3427 44.9659 18.0014 45.3482C10.3357 43.1552 5 35.6237 5 26.9527V25.7753L5.36463 25.6851C10.1745 24.4967 14.8068 22.3511 18.9502 19.4129C21.7983 23.4643 26.2139 25.858 30.9242 25.858H31.0214V26.9474C31.0214 30.0767 30.3065 33.1846 28.9539 35.9354C28.7332 36.3842 28.8875 36.9434 29.2986 37.1842C29.4258 37.2588 29.5626 37.2941 29.6975 37.2941C29.9987 37.2941 30.2902 37.1178 30.4426 36.8078C31.0736 35.5245 31.5767 34.17 31.9483 32.7736H32.3446C33.3222 32.7736 34.2409 32.3575 34.9317 31.6022C35.6223 30.8469 36.0017 29.8431 36 28.7757L35.9961 26.4396ZM3.65542 30.9288C3.12967 30.9288 2.63568 30.7051 2.2642 30.299C1.89281 29.8928 1.68869 29.353 1.68971 28.7791L1.69359 26.443C1.69537 25.3919 2.39414 24.5158 3.31038 24.3355V26.9527C3.31038 28.3079 3.42934 29.6377 3.65736 30.9288H3.65542V30.9288ZM18.0108 1.84462C20.9127 1.84462 23.424 3.78922 24.4476 6.603C22.5024 5.56448 20.3181 4.98048 18.0108 4.98048C15.7035 4.98048 13.519 5.56448 11.5739 6.6031C12.5976 3.78922 15.1089 1.84462 18.0108 1.84462ZM31.0215 23.6111V24.0133H30.9243C26.7743 24.0133 22.8813 21.9217 20.3503 18.3755C20.9352 17.9227 21.5096 17.4544 22.0715 16.9694C22.4374 16.6534 22.4995 16.0734 22.2103 15.6738C21.9208 15.2744 21.3895 15.2066 21.0235 15.5223C16.3507 19.5557 10.8101 22.4469 5.00017 23.8839V23.6111V21.0287C5.00008 13.1968 10.8366 6.8251 18.0108 6.8251C25.1849 6.8251 31.0215 13.1968 31.0215 21.0287V23.6111ZM33.7359 30.2989C33.3674 30.7019 32.8782 30.925 32.3571 30.9284C32.5904 29.6193 32.7112 28.2851 32.7112 26.9472V24.3396C33.6168 24.5293 34.3047 25.4 34.3065 26.4429L34.3104 28.7789C34.3114 29.353 34.1074 29.8927 33.7359 30.2989Z" fill="#FEF9F6"/>
</svg>
