<svg width="98" height="37" viewBox="0 0 98 37" fill="none" xmlns="http://www.w3.org/2000/svg">
<path d="M19.5938 5.74219C18.25 5.58594 17 5.50781 15.8438 5.50781C12.7812 5.50781 11.25 6.8125 11.25 9.42188V11.1328H16.2891V16.1016H11.25V36.4922H4.45312V16.1016H0.679688V11.1328H4.45312V9.16406C4.48438 6.22656 5.40625 3.96875 7.21875 2.39062C9.03125 0.796875 11.5938 0 14.9062 0C17.2656 0 21.0938 0.25 26.3906 0.75V36.4922H19.5938V5.74219Z" fill="#FBBD93"/>
<path d="M72.3553 17.4844C71.4334 17.3594 70.6209 17.2969 69.9178 17.2969C67.3553 17.2969 65.6756 18.1641 64.8788 19.8984V36.4922H58.1053V11.1328H64.5037L64.6913 14.1562C66.0506 11.8281 67.9334 10.6641 70.3397 10.6641C71.0897 10.6641 71.7928 10.7656 72.4491 10.9688L72.3553 17.4844Z" fill="#FBBD93"/>
<path d="M90.3487 36.4922C90.0362 35.8828 89.8097 35.125 89.6691 34.2188C88.0284 36.0469 85.8956 36.9609 83.2706 36.9609C80.7862 36.9609 78.7237 36.2422 77.0831 34.8047C75.4581 33.3672 74.6456 31.5547 74.6456 29.3672C74.6456 26.6797 75.6378 24.6172 77.6222 23.1797C79.6222 21.7422 82.505 21.0156 86.2706 21H89.3878V19.5469C89.3878 18.375 89.0831 17.4375 88.4737 16.7344C87.88 16.0312 86.9347 15.6797 85.6378 15.6797C84.4972 15.6797 83.5987 15.9531 82.9425 16.5C82.3019 17.0469 81.9816 17.7969 81.9816 18.75H75.2081C75.2081 17.2812 75.6612 15.9219 76.5675 14.6719C77.4737 13.4219 78.755 12.4453 80.4112 11.7422C82.0675 11.0234 83.9269 10.6641 85.9894 10.6641C89.1144 10.6641 91.5909 11.4531 93.4191 13.0312C95.2628 14.5938 96.1847 16.7969 96.1847 19.6406V30.6328C96.2003 33.0391 96.5362 34.8594 97.1925 36.0938V36.4922H90.3487ZM84.7472 31.7812C85.7472 31.7812 86.6691 31.5625 87.5128 31.125C88.3566 30.6719 88.9816 30.0703 89.3878 29.3203V24.9609H86.8566C83.4659 24.9609 81.6612 26.1328 81.4425 28.4766L81.4191 28.875C81.4191 29.7188 81.7159 30.4141 82.3097 30.9609C82.9034 31.5078 83.7159 31.7812 84.7472 31.7812Z" fill="#FBBD93"/>
<circle cx="42" cy="21" r="15" fill="#FBBD93"/>
<circle cx="42.5" cy="20.5" r="7.5" fill="#55331C"/>
</svg>
